<mxfile host="65bd71144e">
    <diagram id="JVeWHsNLFMFzitQ6XYen" name="Page-1">
        <mxGraphModel dx="2596" dy="793" grid="1" gridSize="10" guides="1" tooltips="1" connect="1" arrows="1" fold="1" page="1" pageScale="1" pageWidth="850" pageHeight="1100" background="#FFFFFF" math="0" shadow="0">
            <root>
                <mxCell id="0"/>
                <mxCell id="1" parent="0"/>
                <mxCell id="azna6x-sTTsmz5Hnr_kx-3" value="NASA Mission Control API (nasa-project)" style="rounded=1;whiteSpace=wrap;html=1;fillColor=#b1ddf0;strokeColor=#10739e;align=center;verticalAlign=bottom;opacity=50;strokeWidth=2;" parent="1" vertex="1">
                    <mxGeometry x="200" y="440" width="600" height="240" as="geometry"/>
                </mxCell>
                <mxCell id="azna6x-sTTsmz5Hnr_kx-5" value="&lt;font color=&quot;#000000&quot;&gt;Web Application&lt;br&gt;(nasa-fe)&lt;/font&gt;" style="rounded=1;whiteSpace=wrap;html=1;fillColor=#b1ddf0;strokeColor=#10739e;" parent="1" vertex="1">
                    <mxGeometry x="319" y="565" width="120" height="60" as="geometry"/>
                </mxCell>
                <mxCell id="azna6x-sTTsmz5Hnr_kx-6" value="&lt;font color=&quot;#000000&quot;&gt;Node Api&lt;br&gt;(nasa-project-api)&lt;/font&gt;" style="rounded=1;whiteSpace=wrap;html=1;fillColor=#b1ddf0;strokeColor=#10739e;" parent="1" vertex="1">
                    <mxGeometry x="540" y="565" width="120" height="60" as="geometry"/>
                </mxCell>
                <mxCell id="azna6x-sTTsmz5Hnr_kx-14" value="" style="endArrow=classic;startArrow=classic;html=1;rounded=0;exitX=1;exitY=0.5;exitDx=0;exitDy=0;entryX=0;entryY=0.5;entryDx=0;entryDy=0;strokeColor=#000000;" parent="1" source="azna6x-sTTsmz5Hnr_kx-5" target="azna6x-sTTsmz5Hnr_kx-6" edge="1">
                    <mxGeometry width="50" height="50" relative="1" as="geometry">
                        <mxPoint x="440" y="620" as="sourcePoint"/>
                        <mxPoint x="490" y="570" as="targetPoint"/>
                    </mxGeometry>
                </mxCell>
                <mxCell id="azna6x-sTTsmz5Hnr_kx-18" value="&lt;font color=&quot;#000000&quot;&gt;Web Browser&lt;/font&gt;" style="rounded=1;whiteSpace=wrap;html=1;strokeWidth=2;fillColor=#d5e8d4;strokeColor=#82b366;gradientColor=#97d077;" parent="1" vertex="1">
                    <mxGeometry x="40" y="400" width="120" height="60" as="geometry"/>
                </mxCell>
                <mxCell id="azna6x-sTTsmz5Hnr_kx-20" value="" style="endArrow=classic;startArrow=classic;html=1;rounded=0;entryX=0.5;entryY=1;entryDx=0;entryDy=0;exitX=0;exitY=0.5;exitDx=0;exitDy=0;edgeStyle=orthogonalEdgeStyle;strokeColor=#000000;" parent="1" source="azna6x-sTTsmz5Hnr_kx-5" target="azna6x-sTTsmz5Hnr_kx-18" edge="1">
                    <mxGeometry width="50" height="50" relative="1" as="geometry">
                        <mxPoint x="400" y="780" as="sourcePoint"/>
                        <mxPoint x="450" y="730" as="targetPoint"/>
                    </mxGeometry>
                </mxCell>
                <mxCell id="azna6x-sTTsmz5Hnr_kx-21" value="&lt;font color=&quot;#000000&quot;&gt;HTTP&lt;/font&gt;" style="text;html=1;strokeColor=none;fillColor=none;align=center;verticalAlign=middle;whiteSpace=wrap;rounded=0;opacity=50;" parent="1" vertex="1">
                    <mxGeometry x="130" y="565" width="60" height="30" as="geometry"/>
                </mxCell>
                <mxCell id="azna6x-sTTsmz5Hnr_kx-22" value="&lt;font color=&quot;#000000&quot;&gt;HTTP&lt;/font&gt;" style="text;html=1;strokeColor=none;fillColor=none;align=center;verticalAlign=middle;whiteSpace=wrap;rounded=0;opacity=50;" parent="1" vertex="1">
                    <mxGeometry x="460" y="565" width="60" height="30" as="geometry"/>
                </mxCell>
                <mxCell id="azna6x-sTTsmz5Hnr_kx-23" value="&lt;font color=&quot;#000000&quot;&gt;NASA Exoplanet&lt;br&gt;Archive&lt;/font&gt;" style="ellipse;shape=cloud;whiteSpace=wrap;html=1;rounded=1;strokeWidth=2;fillColor=#cdeb8b;strokeColor=#36393d;" parent="1" vertex="1">
                    <mxGeometry x="616" y="185" width="170" height="100" as="geometry"/>
                </mxCell>
                <mxCell id="azna6x-sTTsmz5Hnr_kx-24" value="&lt;font color=&quot;#000000&quot;&gt;Kepler Data&lt;/font&gt;" style="shape=document;whiteSpace=wrap;html=1;boundedLbl=1;rounded=1;strokeWidth=2;opacity=50;fillColor=#cdeb8b;strokeColor=#36393d;" parent="1" vertex="1">
                    <mxGeometry x="650" y="460" width="120" height="80" as="geometry"/>
                </mxCell>
                <mxCell id="azna6x-sTTsmz5Hnr_kx-26" value="" style="endArrow=classic;html=1;rounded=0;entryX=0.5;entryY=0;entryDx=0;entryDy=0;strokeColor=#000000;" parent="1" target="azna6x-sTTsmz5Hnr_kx-24" edge="1">
                    <mxGeometry width="50" height="50" relative="1" as="geometry">
                        <mxPoint x="710" y="280" as="sourcePoint"/>
                        <mxPoint x="450" y="720" as="targetPoint"/>
                    </mxGeometry>
                </mxCell>
                <mxCell id="azna6x-sTTsmz5Hnr_kx-27" value="" style="endArrow=classic;html=1;rounded=0;exitX=0.533;exitY=0.85;exitDx=0;exitDy=0;exitPerimeter=0;entryX=1;entryY=0.5;entryDx=0;entryDy=0;edgeStyle=orthogonalEdgeStyle;strokeColor=#000000;" parent="1" source="azna6x-sTTsmz5Hnr_kx-24" target="azna6x-sTTsmz5Hnr_kx-6" edge="1">
                    <mxGeometry width="50" height="50" relative="1" as="geometry">
                        <mxPoint x="400" y="770" as="sourcePoint"/>
                        <mxPoint x="450" y="720" as="targetPoint"/>
                    </mxGeometry>
                </mxCell>
                <mxCell id="azna6x-sTTsmz5Hnr_kx-28" value="&lt;font color=&quot;#000000&quot;&gt;Manually Downloaded&lt;/font&gt;" style="text;html=1;strokeColor=none;fillColor=none;align=center;verticalAlign=middle;whiteSpace=wrap;rounded=0;opacity=50;" parent="1" vertex="1">
                    <mxGeometry x="726" y="340" width="60" height="30" as="geometry"/>
                </mxCell>
                <mxCell id="2" value="&lt;font color=&quot;#000000&quot;&gt;MongoDB Atlas (nasa database)&lt;/font&gt;" style="rounded=1;whiteSpace=wrap;html=1;fillColor=#b1ddf0;strokeColor=#10739e;align=center;verticalAlign=bottom;opacity=50;strokeWidth=2;" vertex="1" parent="1">
                    <mxGeometry x="200" y="160" width="350" height="160" as="geometry"/>
                </mxCell>
                <mxCell id="3" value="MongpDB&lt;br&gt;Cluster" style="shape=cylinder3;whiteSpace=wrap;html=1;boundedLbl=1;backgroundOutline=1;size=15;fillColor=#e3c800;fontColor=#000000;strokeColor=#B09500;" vertex="1" parent="1">
                    <mxGeometry x="425" y="190" width="110" height="90" as="geometry"/>
                </mxCell>
                <mxCell id="5" value="" style="endArrow=classic;startArrow=classic;html=1;fontColor=#000000;exitX=0.5;exitY=0;exitDx=0;exitDy=0;entryX=0.5;entryY=1;entryDx=0;entryDy=0;entryPerimeter=0;edgeStyle=orthogonalEdgeStyle;fillColor=#000000;strokeColor=#000000;rounded=0;" edge="1" parent="1" source="azna6x-sTTsmz5Hnr_kx-6" target="3">
                    <mxGeometry width="50" height="50" relative="1" as="geometry">
                        <mxPoint x="620" y="450" as="sourcePoint"/>
                        <mxPoint x="670" y="400" as="targetPoint"/>
                    </mxGeometry>
                </mxCell>
                <mxCell id="6" value="&lt;font color=&quot;#000000&quot;&gt;MongoDB Driver&lt;/font&gt;" style="text;html=1;strokeColor=none;fillColor=none;align=center;verticalAlign=middle;whiteSpace=wrap;rounded=0;opacity=50;" vertex="1" parent="1">
                    <mxGeometry x="480" y="390" width="121" height="30" as="geometry"/>
                </mxCell>
            </root>
        </mxGraphModel>
    </diagram>
</mxfile>